# xmcd
#
# Track frame offsets:
#	150
#	20720
#	35086
#	53498
#	67524
#	83499
#	98861
#	112305
#	130470
#	139709
#
# Disc length: 2269 seconds
#
# Revision: 15
# Processed by: cddbd v1.5.2PL0 Copyright (c) Steve Scherf et al.
# Submitted via: audiograbber 1.83.01
#
DISCID=8308db0a
DTITLE=Neil Young - Harvest
DYEAR=1972
DGENRE=Folk-Rock
TTITLE0=Out On The Weekend
TTITLE1=Harvest
TTITLE2=A Man Needs A Maid
TTITLE3=Heart Of Gold
TTITLE4=Are You Ready For The Country?
TTITLE5=Old Man
TTITLE6=There's A World
TTITLE7=Alabama
TTITLE8=The Needle And The Damage Done
TTITLE9=Words (Between The Lines Of Age)
EXTD=CD 2009 - digitally remastered, 2009\nReprise Records 9362-49789-9\nNeil Y
EXTD=oung Archives Officia
EXTT0=
EXTT1=
EXTT2=
EXTT3=
EXTT4=
EXTT5=
EXTT6=
EXTT7=
EXTT8=
EXTT9=
PLAYORDER=
